<svg xmlns="http://www.w3.org/2000/svg" version="1.1" xmlns:xlink="http://www.w3.org/1999/xlink" width="200" height="200"><svg xmlns="http://www.w3.org/2000/svg" version="1.1" xmlns:xlink="http://www.w3.org/1999/xlink" viewBox="0 0 200 200"><rect width="200" height="200" fill="url('#gradient')"></rect><defs><linearGradient id="SvgjsLinearGradient1001" gradientTransform="rotate(120 0.5 0.5)"><stop offset="0%" stop-color="#dbd4c9"></stop><stop offset="100%" stop-color="#b95232"></stop></linearGradient></defs><g><g fill="#283855" transform="matrix(1.4826360055360375,0,0,1.4826360055360375,30.4090016822623,110.54091706380008)" stroke="#739bab" stroke-width="0.2"><path d="M6.85 0L1.07 0L1.07-14.22L6.18-14.22Q8.93-14.22 10.36-13.21Q11.79-12.21 11.79-10.29L11.79-10.29Q11.79-9.19 11.28-8.41Q10.77-7.63 9.79-7.26L9.79-7.26Q10.90-6.96 11.49-6.16Q12.09-5.36 12.09-4.21L12.09-4.21Q12.09-2.12 10.77-1.07Q9.44-0.02 6.85 0L6.85 0ZM6.90-6.04L4.50-6.04L4.50-2.64L6.75-2.64Q7.68-2.64 8.17-3.06Q8.67-3.49 8.67-4.26L8.67-4.26Q8.67-6.04 6.90-6.04L6.90-6.04ZM4.50-11.57L4.50-8.29L6.29-8.29Q7.41-8.30 7.89-8.70Q8.37-9.10 8.37-9.88L8.37-9.88Q8.37-10.78 7.85-11.18Q7.33-11.57 6.18-11.57L6.18-11.57L4.50-11.57ZM16.02-14.22L18.64-8.05L21.26-14.22L24.96-14.22L20.38-5.11L20.38 0L16.90 0L16.90-5.11L12.33-14.22L16.02-14.22ZM37.32-14.22L37.32-11.57L33.06-11.57L33.06 0L29.63 0L29.63-11.57L25.44-11.57L25.44-14.22L37.32-14.22ZM47.59-8.57L47.59-6.03L42.20-6.03L42.20-2.64L48.56-2.64L48.56 0L38.77 0L38.77-14.22L48.58-14.22L48.58-11.57L42.20-11.57L42.20-8.57L47.59-8.57ZM53.39-14.22L53.39-2.64L59.36-2.64L59.36 0L49.96 0L49.96-14.22L53.39-14.22ZM64.45-14.22L64.45 0L61.04 0L61.04-14.22L64.45-14.22ZM78.71-14.22L78.71 0L75.30 0L70.26-8.85L70.26 0L66.84 0L66.84-14.22L70.26-14.22L75.29-5.37L75.29-14.22L78.71-14.22ZM88.74 0L85.71-5.29L84.31-3.75L84.31 0L80.88 0L80.88-14.22L84.31-14.22L84.31-7.95L85.50-9.76L88.56-14.22L92.80-14.22L88.00-7.93L92.80 0L88.74 0Z"></path></g></g></svg><style>@media (prefers-color-scheme: light) { :root { filter: none; } }
@media (prefers-color-scheme: dark) { :root { filter: none; } }
</style></svg>